<?xml version="1.0" encoding="UTF-8"?>
<!-- Generator: visioncortex VTracer 0.6.3 -->
<svg version="1.1" xmlns="http://www.w3.org/2000/svg" width="1280" height="378">
<path d="M0 0 C14.52 0 29.04 0 44 0 C44 39.27 44 78.54 44 119 C63.58 119.04 63.58 119.04 83.55 119.08 C91.84 119.1 100.14 119.13 108.43 119.16 C121.58 119.21 134.73 119.25 147.88 119.27 C157.46 119.28 167.04 119.31 176.62 119.35 C181.68 119.38 186.74 119.39 191.81 119.39 C196.59 119.39 201.38 119.41 206.16 119.44 C207.9 119.45 209.64 119.45 211.38 119.45 C247.19 119.34 279.36 133.18 304.75 158.25 C312.06 165.65 318.61 173.1 324 182 C324.38 182.61 324.77 183.23 325.16 183.86 C337.08 203.29 342.4 226.31 342.38 248.94 C342.37 249.62 342.37 250.3 342.37 251 C342.34 262.71 341.16 273.7 338 285 C337.83 285.65 337.66 286.3 337.48 286.98 C329.08 318.43 305.66 345.11 277.98 361.39 C263.11 369.83 247.77 374.21 231 377 C230.4 377.17 229.81 377.35 229.2 377.53 C226.3 378.15 223.56 378.12 220.6 378.12 C219.28 378.12 217.96 378.12 216.6 378.12 C215.14 378.12 213.68 378.12 212.23 378.11 C210.69 378.11 209.15 378.11 207.61 378.11 C203.44 378.11 199.27 378.11 195.09 378.1 C190.73 378.1 186.37 378.09 182.01 378.09 C173.75 378.09 165.49 378.08 157.23 378.07 C147.83 378.06 138.43 378.06 129.02 378.05 C109.68 378.04 90.34 378.02 71 378 C70.95 371.49 70.91 364.97 70.89 358.46 C70.88 356.24 70.87 354.02 70.85 351.8 C70.82 348.62 70.81 345.44 70.8 342.26 C70.79 340.76 70.79 340.76 70.77 339.24 C70.77 338.32 70.77 337.4 70.77 336.45 C70.77 335.64 70.76 334.82 70.76 333.99 C71 332 71 332 73 330 C75.49 329.75 75.49 329.75 78.7 329.75 C79.91 329.74 81.13 329.74 82.38 329.73 C83.73 329.74 85.08 329.74 86.44 329.74 C87.85 329.74 89.27 329.74 90.69 329.73 C93.76 329.73 96.82 329.72 99.89 329.73 C104.75 329.73 109.61 329.71 114.47 329.7 C128.29 329.65 142.12 329.63 155.95 329.62 C163.58 329.62 171.21 329.6 178.84 329.56 C182.87 329.55 186.9 329.54 190.93 329.55 C221.49 329.61 247.45 326.52 270.75 304.81 C287.77 286.69 292.8 265.99 292.14 241.67 C291.12 221.75 281.28 202.61 267 189 C246.56 171.58 221.59 167.71 195.72 167.68 C193.58 167.67 191.44 167.66 189.3 167.65 C183.52 167.62 177.74 167.61 171.96 167.6 C165.91 167.58 159.87 167.55 153.82 167.53 C142.37 167.48 130.93 167.44 119.49 167.41 C104.02 167.37 88.54 167.3 73.07 167.24 C48.71 167.15 24.36 167.08 0 167 C0 111.89 0 56.78 0 0 Z M293 237 C294 239 294 239 294 239 Z " fill="#000000" transform="translate(0,0)"/>
<path d="M0 0 C2.88 1.39 4.62 3.5 6.78 5.86 C7.31 6.41 7.85 6.97 8.41 7.54 C17.16 16.94 21.91 27.81 25.78 39.86 C22.43 43.61 18.75 45.84 14.4 48.23 C13.69 48.62 12.98 49.02 12.24 49.42 C-5.44 59.02 -24.78 65.06 -45.06 64.98 C-45.8 64.98 -46.55 64.98 -47.32 64.98 C-49.79 64.98 -52.27 64.97 -54.75 64.97 C-56.53 64.97 -58.31 64.97 -60.1 64.97 C-64.93 64.97 -69.76 64.96 -74.58 64.96 C-79.63 64.95 -84.69 64.95 -89.74 64.95 C-99.3 64.95 -108.85 64.94 -118.41 64.93 C-131.33 64.91 -144.26 64.91 -157.18 64.9 C-177.53 64.89 -197.87 64.87 -218.22 64.86 C-218.55 104.79 -218.88 144.72 -219.22 185.86 C-233.74 185.86 -248.26 185.86 -263.22 185.86 C-263.22 130.09 -263.22 74.32 -263.22 16.86 C-239.77 16.8 -239.77 16.8 -215.84 16.74 C-205.93 16.71 -196.02 16.68 -186.11 16.65 C-170.38 16.59 -154.65 16.54 -138.92 16.51 C-127.46 16.49 -116.01 16.45 -104.55 16.41 C-98.49 16.38 -92.43 16.36 -86.37 16.36 C-80.65 16.35 -74.94 16.33 -69.22 16.3 C-67.13 16.29 -65.04 16.29 -62.96 16.29 C-41.85 16.3 -22.77 13.54 -4.96 1.33 C-2.22 -0.14 -2.22 -0.14 0 0 Z " fill="#55AC8A" transform="translate(263.22265625,192.14453125)"/>
<path d="M0 0 C21.25 -0.09 42.51 -0.16 63.76 -0.21 C73.63 -0.23 83.5 -0.26 93.37 -0.3 C101.98 -0.34 110.59 -0.37 119.2 -0.38 C123.75 -0.38 128.3 -0.39 132.86 -0.42 C137.15 -0.45 141.45 -0.46 145.75 -0.45 C147.31 -0.45 148.88 -0.46 150.44 -0.48 C184.02 -0.79 213.62 17.17 237 40 C244.15 47.35 244.15 47.35 245 52 C245.66 52 246.32 52 247 52 C247.33 53.32 247.66 54.64 248 56 C248.66 56 249.32 56 250 56 C269.85 82.81 275.29 118.78 270.54 151.15 C268.74 160.79 266.47 172.7 261 181 C258.85 181.8 258.85 181.8 257 182 C256.53 181.26 256.05 180.52 255.57 179.76 C243.77 161.64 243.77 161.64 227.7 147.55 C221.38 143.41 221.38 143.41 220.31 139.42 C220.18 136.38 220.32 133.47 220.56 130.44 C220.64 128.28 220.72 126.13 220.79 123.97 C220.83 122.94 220.87 121.9 220.92 120.84 C221.46 101.77 211.13 83.86 198.36 70.27 C183.87 56.31 160.82 46.96 140.74 46.84 C139.5 46.83 138.26 46.82 136.99 46.81 C135.63 46.81 134.27 46.8 132.92 46.79 C131.48 46.79 130.04 46.78 128.6 46.76 C124.7 46.74 120.81 46.72 116.91 46.7 C112.83 46.67 108.76 46.65 104.68 46.62 C96.97 46.57 89.26 46.53 81.54 46.48 C72.76 46.43 63.97 46.38 55.19 46.32 C37.13 46.21 19.06 46.1 1 46 C-0.17 43.67 -0.12 42.33 -0.11 39.73 C-0.11 38.85 -0.11 37.97 -0.11 37.06 C-0.11 36.11 -0.1 35.16 -0.1 34.18 C-0.1 33.21 -0.09 32.23 -0.09 31.23 C-0.09 28.11 -0.08 24.99 -0.06 21.88 C-0.06 19.76 -0.05 17.65 -0.05 15.54 C-0.04 10.36 -0.02 5.18 0 0 Z M222 116 C223 118 223 118 223 118 Z M222 139 C223 141 223 141 223 141 Z " fill="#55AC8A" transform="translate(71,0)"/>
<path d="M0 0 C1.23 0 2.46 0.01 3.73 0.01 C4.93 -0.01 6.14 -0.02 7.38 -0.04 C17.06 -0.04 24.93 1.17 32.67 7.32 C37.74 12.54 38.83 16.4 38.92 23.63 C38.94 24.93 38.97 26.23 38.99 27.56 C38.55 32.64 36.92 35.88 33.6 39.7 C31.67 41.32 31.67 41.32 29.67 41.32 C30.35 42 31.03 42.68 31.73 43.38 C32.18 43.84 32.63 44.29 33.09 44.76 C34.22 45.88 35.37 47 36.52 48.11 C37.15 48.71 37.77 49.32 38.42 49.95 C39.01 50.52 39.6 51.09 40.21 51.67 C44.05 56.03 43.05 62.93 42.94 68.42 C42.53 74.34 41.28 76.95 36.83 80.99 C30.42 86.16 24.63 87.63 16.42 87.52 C15.66 87.51 14.89 87.51 14.1 87.51 C11.66 87.5 9.23 87.47 6.79 87.45 C5.13 87.44 3.47 87.43 1.81 87.42 C-2.24 87.4 -6.28 87.36 -10.33 87.32 C-11.89 84.21 -11.48 80.92 -11.48 77.51 C-11.48 76.7 -11.49 75.89 -11.49 75.06 C-11.5 72.39 -11.5 69.72 -11.5 67.04 C-11.51 65.19 -11.51 63.33 -11.51 61.48 C-11.52 57.59 -11.52 53.71 -11.52 49.82 C-11.52 44.83 -11.53 39.84 -11.55 34.85 C-11.56 31.02 -11.56 27.19 -11.56 23.37 C-11.56 21.52 -11.57 19.68 -11.58 17.84 C-11.59 15.27 -11.58 12.71 -11.58 10.14 C-11.58 9.37 -11.59 8.61 -11.59 7.82 C-11.54 -0.89 -7.5 0.05 0 0 Z M1.67 15.32 C1.39 17.65 1.39 17.65 1.47 20.33 C1.48 21.32 1.48 22.3 1.49 23.32 C1.51 24.35 1.52 25.38 1.54 26.45 C1.55 27.49 1.56 28.53 1.57 29.6 C1.59 32.17 1.62 34.75 1.67 37.32 C4.75 37.47 7.83 37.56 10.92 37.63 C11.79 37.68 12.66 37.72 13.56 37.76 C18.89 37.93 18.89 37.93 23.22 35.04 C25.86 30.07 25.93 25.92 25.04 20.51 C23.42 16.75 22.41 15.86 18.67 14.32 C13.58 13.05 5.62 11.37 1.67 15.32 Z M25.67 22.32 C26.67 24.32 26.67 24.32 26.67 24.32 Z M2.67 38.32 C2.67 38.65 2.67 38.98 2.67 39.32 C7.29 39.32 11.91 39.32 16.67 39.32 C16.67 38.99 16.67 38.66 16.67 38.32 C12.05 38.32 7.43 38.32 2.67 38.32 Z M2.67 51.32 C1.44 53.78 1.55 55.37 1.57 58.11 C1.57 59.05 1.57 59.99 1.58 60.96 C1.59 61.95 1.59 62.93 1.6 63.95 C1.61 64.94 1.61 65.93 1.62 66.96 C1.63 69.41 1.65 71.87 1.67 74.32 C5.04 74.47 8.41 74.56 11.79 74.63 C12.74 74.68 13.69 74.72 14.67 74.76 C20.91 74.88 20.91 74.88 26.28 72.04 C29.08 68.85 29.63 67.46 29.83 63.38 C29.54 59.75 28.59 57.39 26.67 54.32 C21.23 51.33 16.85 50.93 10.73 51.13 C9.95 51.15 9.17 51.16 8.37 51.18 C6.47 51.21 4.57 51.26 2.67 51.32 Z M2.67 75.32 C2.67 75.65 2.67 75.98 2.67 76.32 C7.95 76.32 13.23 76.32 18.67 76.32 C18.67 75.99 18.67 75.66 18.67 75.32 C13.39 75.32 8.11 75.32 2.67 75.32 Z " fill="#000000" transform="translate(435.333984375,146.677734375)"/>
<path d="M0 0 C4.52 3.88 8.26 7.21 12.12 11.56 C16.69 16.65 21.43 21.51 26.32 26.28 C29.14 29.05 31.8 31.89 34.38 34.88 C38.1 39.18 42.08 43.19 46.12 47.19 C46.81 47.87 47.5 48.56 48.21 49.26 C49.54 50.58 50.87 51.9 52.2 53.22 C54.47 55.47 56.74 57.73 59 60 C59 57.93 58.98 55.85 58.97 53.78 C58.93 47.55 58.91 41.33 58.89 35.11 C58.88 32.41 58.87 29.72 58.85 27.02 C58.82 23.15 58.81 19.28 58.8 15.41 C58.79 14.2 58.78 12.99 58.77 11.74 C58.77 10.06 58.77 10.06 58.77 8.35 C58.77 7.36 58.76 6.38 58.76 5.36 C59 3 59 3 61 1 C63.09 0.77 63.09 0.77 65.5 0.81 C66.69 0.82 66.69 0.82 67.91 0.83 C70 1 70 1 72 2 C72 31.37 72 60.74 72 91 C64.14 84.26 64.14 84.26 61.77 81.65 C61.23 81.06 60.68 80.46 60.12 79.85 C59.54 79.22 58.97 78.59 58.38 77.94 C51.23 70.2 43.82 62.75 36.32 55.36 C31.87 50.96 27.59 46.5 23.52 41.75 C21.47 39.39 19.29 37.19 17.06 35 C16.29 34.24 15.52 33.47 14.72 32.69 C14.15 32.13 13.59 31.57 13 31 C11.75 32.03 11.75 32.03 11.88 34.25 C11.88 35.24 11.88 36.23 11.89 37.25 C11.89 38.38 11.89 39.5 11.89 40.65 C11.89 41.87 11.9 43.09 11.9 44.35 C11.9 46.21 11.9 46.21 11.91 48.11 C11.91 51.42 11.92 54.72 11.93 58.03 C11.94 61.4 11.95 64.77 11.95 68.14 C11.96 74.76 11.98 81.38 12 88 C8.04 88 4.08 88 0 88 C0 58.96 0 29.92 0 0 Z " fill="#000000" transform="translate(748,146)"/>
<path d="M0 0 C1.23 0 2.46 0.01 3.73 0.01 C4.93 -0.01 6.14 -0.02 7.38 -0.04 C19.29 -0.05 28.37 2.61 37.27 10.8 C43.2 17.3 43.07 24.52 42.9 32.88 C42.39 40.26 40.84 44.47 35.42 49.57 C34.33 50.48 34.33 50.48 33.21 51.4 C31.4 53.2 31.4 53.2 31.83 55.53 C32.87 59 34.57 61.86 36.48 64.9 C36.86 65.51 37.23 66.12 37.62 66.76 C38.82 68.7 40.02 70.64 41.23 72.57 C42.44 74.52 43.64 76.48 44.85 78.43 C45.59 79.65 46.35 80.86 47.1 82.07 C49.67 86.21 49.67 86.21 49.67 87.32 C44.57 88.51 39.59 89.41 34.67 87.32 C28.77 81.72 25.28 73.52 21.67 66.34 C19.2 61.44 19.2 61.44 15.67 57.32 C11.51 56.38 7.84 56.51 3.67 57.32 C1.81 59.18 2.43 62.27 2.35 64.76 C2.31 66.07 2.27 67.37 2.22 68.72 C2.18 70.11 2.14 71.5 2.1 72.88 C2.06 74.28 2.02 75.67 1.97 77.06 C1.87 80.48 1.76 83.9 1.67 87.32 C-2.29 87.32 -6.25 87.32 -10.33 87.32 C-11.89 84.21 -11.48 80.92 -11.48 77.51 C-11.48 76.7 -11.49 75.89 -11.49 75.06 C-11.5 72.39 -11.5 69.72 -11.5 67.04 C-11.51 65.19 -11.51 63.33 -11.51 61.48 C-11.52 57.59 -11.52 53.71 -11.52 49.82 C-11.52 44.83 -11.53 39.84 -11.55 34.85 C-11.56 31.02 -11.56 27.19 -11.56 23.37 C-11.56 21.52 -11.57 19.68 -11.58 17.84 C-11.59 15.27 -11.58 12.71 -11.58 10.14 C-11.58 9.37 -11.59 8.61 -11.59 7.82 C-11.54 -0.89 -7.5 0.05 0 0 Z M1.67 15.32 C1.39 18.24 1.39 18.24 1.47 21.64 C1.48 22.9 1.48 24.16 1.49 25.45 C1.51 26.77 1.52 28.09 1.54 29.45 C1.55 30.79 1.56 32.13 1.57 33.47 C1.59 36.75 1.62 40.04 1.67 43.32 C4.71 43.43 7.75 43.51 10.79 43.57 C12.07 43.62 12.07 43.62 13.38 43.67 C18.98 43.76 22.31 43.2 26.67 39.32 C29.79 34.9 29.13 29.5 28.67 24.32 C27.78 20.47 26.46 17.95 23.29 15.45 C18.73 13.49 14.41 13.17 9.48 13.13 C7.91 13.11 7.91 13.11 6.31 13.09 C3.51 13.05 3.51 13.05 1.67 15.32 Z M29.67 28.32 C30.67 30.32 30.67 30.32 30.67 30.32 Z " fill="#000000" transform="translate(521.333984375,146.677734375)"/>
<path d="M0 0 C0.79 0.01 1.59 0.03 2.41 0.04 C3.6 0.05 3.6 0.05 4.81 0.06 C6.91 0.23 6.91 0.23 8.91 1.23 C9.24 12.45 9.57 23.67 9.91 35.23 C14.25 31.78 14.25 31.78 17.84 27.92 C21.99 23.06 26.37 18.42 30.76 13.77 C34.17 10.14 37.47 6.45 40.64 2.6 C42.59 0.49 43.73 0.24 46.62 0.1 C47.68 0.1 48.75 0.1 49.84 0.11 C51.44 0.1 51.44 0.1 53.06 0.1 C55.91 0.23 55.91 0.23 58.91 1.23 C57.49 4.48 55.78 6.54 53.22 8.98 C50.54 11.54 48.05 14.18 45.64 16.98 C43.14 19.86 40.58 22.63 37.91 25.34 C37.25 26.01 36.59 26.68 35.91 27.38 C34.55 28.76 33.19 30.13 31.81 31.49 C31.16 32.16 30.51 32.83 29.84 33.52 C29.25 34.12 28.67 34.71 28.06 35.32 C26.67 37.21 26.67 37.21 27.06 39.71 C27.93 42.31 28.92 44.03 30.57 46.21 C31.13 46.95 31.69 47.7 32.26 48.46 C32.87 49.25 33.47 50.04 34.09 50.86 C35.37 52.55 36.64 54.24 37.91 55.93 C38.9 57.24 38.9 57.24 39.9 58.57 C43.15 62.89 46.34 67.25 49.53 71.61 C53.81 77.46 53.81 77.46 58.3 83.14 C59.91 85.23 59.91 85.23 59.91 87.23 C47.21 88.89 47.21 88.89 42.33 85.38 C40.41 83.03 38.7 80.64 37.09 78.07 C35.77 76.02 34.37 74.04 32.94 72.07 C30.35 68.47 27.8 64.84 25.27 61.2 C23.41 58.51 21.53 55.84 19.66 53.17 C18.74 51.86 17.82 50.54 16.91 49.23 C14.38 49.58 13.14 50 11.3 51.8 C9.41 55.1 9.43 58.14 9.39 61.84 C9.38 62.57 9.36 63.29 9.34 64.04 C9.29 66.35 9.25 68.67 9.22 70.98 C9.19 72.55 9.15 74.12 9.12 75.7 C9.03 79.54 8.96 83.39 8.91 87.23 C4.95 87.23 0.99 87.23 -3.09 87.23 C-4.65 84.12 -4.24 80.83 -4.24 77.42 C-4.24 76.61 -4.25 75.8 -4.25 74.97 C-4.26 72.3 -4.26 69.62 -4.26 66.95 C-4.26 65.1 -4.27 63.24 -4.27 61.39 C-4.28 57.5 -4.28 53.62 -4.28 49.73 C-4.28 44.74 -4.29 39.75 -4.31 34.76 C-4.32 30.93 -4.32 27.1 -4.32 23.27 C-4.32 21.43 -4.33 19.59 -4.34 17.75 C-4.35 15.18 -4.34 12.61 -4.34 10.04 C-4.34 9.28 -4.35 8.51 -4.35 7.72 C-4.31 0.47 -4.31 0.47 0 0 Z " fill="#000000" transform="translate(1216.09375,146.76953125)"/>
<path d="M0 0 C1.84 0 1.84 0 3.71 0.01 C4.91 -0.01 6.1 -0.02 7.34 -0.04 C19.11 -0.05 28.19 1.84 36.71 10.32 C42.35 16.35 42.4 23.43 42.31 31.28 C42.04 37.63 41 43.37 36.71 48.32 C34.54 49.57 34.54 49.57 32.71 50.32 C32.71 50.98 32.71 51.64 32.71 52.32 C24.32 57.98 15.95 57.46 6.09 57.26 C3.76 57.05 3.76 57.05 2.71 58.32 C2.56 60.47 2.46 62.61 2.4 64.76 C2.36 66.07 2.31 67.37 2.27 68.72 C2.23 70.11 2.19 71.5 2.15 72.88 C2.11 74.28 2.07 75.67 2.02 77.06 C1.91 80.48 1.81 83.9 1.71 87.32 C-2.25 87.32 -6.21 87.32 -10.29 87.32 C-11.84 84.21 -11.43 80.92 -11.43 77.51 C-11.43 76.7 -11.44 75.89 -11.44 75.06 C-11.45 72.39 -11.45 69.72 -11.45 67.04 C-11.46 65.19 -11.46 63.33 -11.46 61.48 C-11.47 57.59 -11.47 53.71 -11.47 49.82 C-11.47 44.83 -11.48 39.84 -11.5 34.85 C-11.51 31.02 -11.51 27.19 -11.51 23.37 C-11.52 21.52 -11.52 19.68 -11.53 17.84 C-11.54 15.27 -11.53 12.71 -11.53 10.14 C-11.53 9.37 -11.54 8.61 -11.55 7.82 C-11.49 -0.87 -7.49 0.05 0 0 Z M1.71 15.32 C1.44 18.24 1.44 18.24 1.52 21.64 C1.53 22.9 1.53 24.16 1.54 25.45 C1.56 26.77 1.57 28.09 1.59 29.45 C1.6 30.79 1.61 32.13 1.62 33.47 C1.64 36.75 1.67 40.04 1.71 43.32 C4.61 43.4 7.51 43.46 10.4 43.51 C11.22 43.53 12.04 43.56 12.88 43.59 C18.73 43.66 21.82 42.6 26.46 38.95 C29.55 34.94 29.18 29.17 28.71 24.32 C27.82 20.49 27.06 18.21 23.71 16 C17.74 13.27 6.88 10.16 1.71 15.32 Z " fill="#55AC8A" transform="translate(950.28515625,146.677734375)"/>
<path d="M0 0 C3 1 3 1 4.11 2.95 C4.45 3.82 4.8 4.68 5.15 5.56 C5.55 6.54 5.95 7.52 6.36 8.53 C7 10.14 7 10.14 7.65 11.79 C8.1 12.9 8.55 14.01 9.01 15.15 C10.23 18.17 11.43 21.18 12.63 24.19 C13.87 27.3 15.12 30.39 16.36 33.49 C18.34 38.39 20.31 43.3 22.27 48.21 C24.61 54.03 26.96 59.84 29.34 65.64 C29.66 66.4 29.97 67.16 30.29 67.94 C31.42 70.71 32.56 73.48 33.7 76.25 C34.45 78.07 35.19 79.89 35.93 81.7 C36.54 83.18 36.54 83.18 37.16 84.69 C38 87 38 87 38 89 C35.73 89.11 33.46 89.19 31.19 89.25 C29.92 89.3 28.66 89.34 27.36 89.39 C24 89 24 89 22.11 87.12 C20.89 84.78 19.91 82.49 19 80 C18.74 79.35 18.48 78.71 18.21 78.04 C17.94 77.35 17.66 76.65 17.38 75.94 C17.11 75.29 16.85 74.64 16.59 73.96 C16 72 16 72 16 68 C5.77 68 -4.46 68 -15 68 C-15.99 71.3 -16.98 74.6 -18 78 C-19.54 81.74 -21.26 85.34 -23 89 C-26.96 89 -30.92 89 -35 89 C-34.48 82.29 -32.05 76.63 -29.48 70.45 C-28.79 68.77 -28.79 68.77 -28.08 67.05 C-26.6 63.44 -25.11 59.85 -23.62 56.25 C-22.66 53.91 -21.7 51.57 -20.74 49.23 C-18.81 44.54 -16.88 39.86 -14.95 35.17 C-12.9 30.21 -10.87 25.23 -8.85 20.25 C-8.6 19.62 -8.34 18.99 -8.08 18.34 C-6.85 15.31 -5.63 12.28 -4.41 9.25 C-3.97 8.18 -3.54 7.11 -3.1 6.01 C-2.71 5.06 -2.33 4.12 -1.94 3.14 C-1 1 -1 1 0 0 Z M0 30 C-1.51 33.56 -3.01 37.12 -4.5 40.69 C-4.93 41.69 -5.36 42.7 -5.8 43.74 C-6.21 44.72 -6.61 45.69 -7.03 46.7 C-7.41 47.59 -7.79 48.49 -8.17 49.41 C-9.25 52.34 -9.25 52.34 -9 57 C-2.73 56.67 3.54 56.34 10 56 C9.34 52.71 8.81 50.2 7.62 47.19 C7.36 46.5 7.1 45.82 6.83 45.12 C6.55 44.42 6.28 43.72 6 43 C4.32 38.69 2.72 34.6 2 30 C1.34 30 0.68 30 0 30 Z " fill="#000000" transform="translate(1051,145)"/>
<path d="M0 0 C3 1 3 1 4.4 3.64 C4.89 4.83 5.37 6.02 5.87 7.25 C6.15 7.92 6.42 8.58 6.7 9.27 C7.63 11.51 8.53 13.75 9.44 16 C10.08 17.58 10.73 19.16 11.38 20.73 C12.8 24.21 14.22 27.69 15.63 31.18 C17.75 36.39 19.89 41.6 22.04 46.81 C23.89 51.29 25.73 55.77 27.57 60.24 C28.48 62.46 29.39 64.67 30.31 66.88 C31.59 70 32.87 73.13 34.15 76.25 C34.54 77.2 34.93 78.14 35.33 79.11 C35.69 79.97 36.04 80.84 36.4 81.73 C36.71 82.49 37.02 83.24 37.34 84.02 C38 86 38 86 38 89 C33.38 89 28.76 89 24 89 C16 73.43 16 73.43 16 68 C6.1 68.33 -3.8 68.66 -14 69 C-17.96 78.9 -17.96 78.9 -22 89 C-28.43 89.5 -28.43 89.5 -35 90 C-34.44 84.36 -32.92 79.71 -30.75 74.5 C-30.41 73.68 -30.08 72.86 -29.74 72.02 C-28.64 69.35 -27.54 66.67 -26.44 64 C-25.68 62.14 -24.91 60.28 -24.15 58.42 C-22.58 54.56 -20.99 50.7 -19.41 46.85 C-17.04 41.11 -14.69 35.37 -12.35 29.62 C-9.57 22.83 -6.79 16.04 -4 9.25 C-3.71 8.54 -3.42 7.83 -3.12 7.1 C-1.12 2.23 -1.12 2.23 0 0 Z M0 30 C-1.54 33.76 -3.05 37.54 -4.56 41.31 C-5 42.38 -5.44 43.46 -5.89 44.56 C-6.3 45.59 -6.71 46.62 -7.13 47.68 C-7.7 49.1 -7.7 49.1 -8.29 50.55 C-9.28 53.1 -9.28 53.1 -8 56 C-1.4 56.33 5.2 56.66 12 57 C11.01 54.03 10.02 51.06 9 48 C8.34 47.67 7.68 47.34 7 47 C6.41 44.35 6.26 41.71 6 39 C5.34 39 4.68 39 4 39 C3.34 36.03 2.68 33.06 2 30 C1.34 30 0.68 30 0 30 Z " fill="#000000" transform="translate(629,145)"/>
<path d="M0 0 C-0.47 4.12 -1.02 7.36 -3 11 C-3.57 10.81 -4.14 10.61 -4.72 10.41 C-18.52 5.47 -18.52 5.47 -32.3 8.73 C-34.39 10.29 -35.11 11.56 -36 14 C-35.87 17.61 -35.71 20.07 -33.49 22.98 C-30.07 25.76 -26.37 27.16 -22.31 28.81 C-13.08 32.75 -4.96 36.9 0 46 C2.17 52.51 2.35 62.13 -0.5 68.5 C-4.36 74.77 -9.87 79.2 -17 81 C-19.88 81.32 -22.73 81.38 -25.62 81.38 C-26.42 81.37 -27.21 81.37 -28.02 81.37 C-37.13 81.18 -45.91 78.94 -53 73 C-54 70 -54 70 -53 67.96 C-52.53 67.25 -52.05 66.54 -51.56 65.81 C-51.09 65.1 -50.62 64.38 -50.13 63.64 C-49.76 63.1 -49.38 62.56 -49 62 C-47.97 62.43 -46.95 62.87 -45.89 63.31 C-36.64 67.08 -28.27 70.42 -18.44 66.62 C-15.95 65.08 -15.95 65.08 -14 63 C-13.64 60.5 -13.64 60.5 -13.69 57.69 C-13.67 56.74 -13.65 55.8 -13.64 54.82 C-14.09 51.27 -14.64 49.74 -17 47 C-20.07 45.29 -23.3 44.04 -26.56 42.75 C-36.14 38.7 -43.65 34.33 -49.62 25.5 C-52.05 19.32 -51.81 14.36 -49.25 8.25 C-45.41 0.6 -40.33 -3.9 -32.13 -6.62 C-20.24 -8.74 -10.09 -6.28 0 0 Z M-50 13 C-49 15 -49 15 -49 15 Z M-12 55 C-12 56.65 -12 58.3 -12 60 C-11.67 60 -11.34 60 -11 60 C-11 58.35 -11 56.7 -11 55 C-11.33 55 -11.66 55 -12 55 Z " fill="#000000" transform="translate(906,154)"/>
<path d="M0 0 C2.05 1.28 3.97 2.68 5.88 4.17 C5.33 8.73 4.08 12.14 1.88 16.17 C-1.32 15.15 -4.22 14.12 -7.19 12.54 C-13.5 9.85 -20.8 9.98 -27.2 12.27 C-35.98 16.75 -41.04 22.31 -44.37 31.57 C-47.11 40.98 -46.21 49.67 -41.98 58.57 C-38.03 65.3 -33.46 68.59 -25.94 70.63 C-18.28 72.1 -11.31 71.7 -4.04 68.9 C-1.77 68.03 0.48 67.55 2.88 67.17 C3.55 68.41 4.22 69.66 4.88 70.92 C5.25 71.61 5.62 72.31 6 73.03 C6.88 75.17 6.88 75.17 6.88 79.17 C5.69 79.8 4.5 80.42 3.31 81.04 C2.65 81.39 1.99 81.74 1.31 82.1 C-8.98 86.62 -23.25 87.19 -33.89 83.27 C-46.55 77.02 -53.52 67.86 -59.12 55.17 C-62.26 45.76 -61.22 32.1 -57.12 23.17 C-56.71 22.26 -56.3 21.35 -55.87 20.41 C-45.84 0.36 -21.06 -10.1 0 0 Z M-59.12 50.17 C-58.12 52.17 -58.12 52.17 -58.12 52.17 Z " fill="#000000" transform="translate(1173.125,149.83203125)"/>
<path d="M0 0 C0.79 0.01 1.59 0.03 2.41 0.04 C3.6 0.05 3.6 0.05 4.81 0.06 C6.91 0.23 6.91 0.23 8.91 1.23 C8.91 29.61 8.91 57.99 8.91 87.23 C4.95 87.23 0.99 87.23 -3.09 87.23 C-4.65 84.12 -4.24 80.83 -4.24 77.42 C-4.24 76.61 -4.25 75.8 -4.25 74.97 C-4.26 72.3 -4.26 69.62 -4.26 66.95 C-4.26 65.1 -4.27 63.24 -4.27 61.39 C-4.28 57.5 -4.28 53.62 -4.28 49.73 C-4.28 44.74 -4.29 39.75 -4.31 34.76 C-4.32 30.93 -4.32 27.1 -4.32 23.27 C-4.32 21.43 -4.33 19.59 -4.34 17.75 C-4.35 15.18 -4.34 12.61 -4.34 10.04 C-4.34 9.28 -4.35 8.51 -4.35 7.72 C-4.31 0.47 -4.31 0.47 0 0 Z " fill="#000000" transform="translate(700.09375,146.76953125)"/>
<path d="M0 0 C0.33 0 0.66 0 1 0 C1 28.38 1 56.76 1 86 C0.67 86 0.34 86 0 86 C0 57.62 0 29.24 0 0 Z " fill="#000000" transform="translate(746,146)"/>
<path d="M0 0 C2.97 0 5.94 0 9 0 C9 0.33 9 0.66 9 1 C6.03 1 3.06 1 0 1 C0 0.67 0 0.34 0 0 Z " fill="#000000" transform="translate(1151,146)"/>
<path d="M0 0 C2 1 2 1 2 1 Z " fill="#2A5745" transform="translate(329,182)"/>
<path d="" fill="#FBFDFD" transform="translate(0,0)"/>
<path d="" fill="#000100" transform="translate(0,0)"/>
<path d="" fill="#000100" transform="translate(0,0)"/>
<path d="" fill="#000100" transform="translate(0,0)"/>
</svg>
