<svg width="350" height="350" viewBox="0 0 350 350" fill="none" xmlns="http://www.w3.org/2000/svg">
<circle cx="175" cy="175" r="175" fill="white"/>
<path d="M125.524 86.1271L125.662 142.578L126.161 142.578L143.09 142.575C146.638 142.575 150.191 142.58 153.74 142.586L153.74 142.587C156.554 142.592 159.369 142.595 162.184 142.597L170.629 142.597L170.63 142.597C174.729 142.592 178.829 142.595 182.929 142.604L182.929 142.605C185.097 142.614 187.264 142.613 189.435 142.608C190.458 142.605 191.481 142.605 192.505 142.607L195.574 142.617L195.575 142.617L197.812 142.616L197.814 142.616C212.75 142.528 226.216 148.788 236.947 160.214L237.456 160.763C240.385 164.033 243.014 167.308 245.219 171.138L245.654 171.912L245.657 171.917L246.156 172.797C251.072 181.628 253.375 192.065 253.53 202.407L253.538 203.408L253.537 204.386C253.537 209.564 253.107 214.434 251.959 219.402L251.72 220.397L251.718 220.404C251.646 220.713 251.574 221.02 251.498 221.342C248.082 235.669 238.677 247.922 227.422 255.666L226.327 256.401C220.043 260.373 213.548 262.448 206.416 263.782L206.387 263.787L206.357 263.796C206.107 263.876 205.855 263.961 205.609 264.042C204.44 264.32 203.333 264.312 202.057 264.316L200.344 264.32L198.478 264.319L196.495 264.324L191.138 264.333L191.136 264.333C190.203 264.335 189.27 264.336 188.337 264.337C187.404 264.339 186.471 264.339 185.537 264.341L174.93 264.358C172.918 264.361 170.906 264.365 168.894 264.368L162.855 264.378L162.854 264.378C154.74 264.393 146.627 264.404 138.513 264.414C138.5 263.036 138.489 261.656 138.478 260.277L138.449 255.643L138.424 252.481L138.392 247.958L138.392 247.956L138.376 246.527L138.372 245.204C138.372 245.01 138.37 244.815 138.368 244.621C138.366 244.435 138.365 244.25 138.365 244.064C138.416 243.585 138.438 243.454 138.506 243.318C138.58 243.172 138.713 243.013 139.066 242.618C139.693 242.547 139.896 242.528 140.461 242.522L141.26 242.518L141.264 242.518C141.522 242.515 141.781 242.513 142.043 242.511C142.304 242.509 142.569 242.507 142.836 242.504C143.415 242.507 143.993 242.506 144.573 242.505L146.396 242.495L150.331 242.486L156.573 242.457L156.574 242.457C159.531 242.438 162.49 242.422 165.45 242.409L174.328 242.375C177.595 242.368 180.862 242.35 184.129 242.323L184.128 242.322L189.3 242.306L189.301 242.306C202.423 242.302 213.707 240.806 223.8 230.333L223.812 230.321L223.823 230.308C231.193 221.57 233.336 211.608 233.023 199.998L233.024 199.998L233.023 199.987L232.968 199.09C232.963 199.03 232.957 198.969 232.952 198.909L233.776 198.546L233.317 198.742C233.769 198.548 233.774 198.541 233.772 198.536L233.771 198.534C233.77 198.532 233.769 198.528 233.765 198.521C233.759 198.506 233.745 198.476 233.718 198.417L233.341 197.588L232.887 197.795L232.849 197.811C231.891 189.03 227.796 180.733 222.063 174.707L222.054 174.696L222.043 174.687L221.624 174.3C212.797 166.26 202.113 164.499 191.164 164.512L191.165 164.512L188.416 164.505L180.993 164.499C179.698 164.497 178.405 164.494 177.111 164.491L173.228 164.484L158.532 164.464L138.661 164.431C128.399 164.414 118.141 164.406 107.88 164.394L107.689 86.1707L125.524 86.1271Z" fill="black" stroke="black"/>
<path d="M219.337 177.197C220.563 177.849 221.305 178.842 222.226 179.951C222.452 180.21 222.683 180.473 222.921 180.741C226.653 185.161 228.685 190.278 230.344 195.952C228.924 197.722 227.362 198.777 225.515 199.908C225.214 200.092 224.912 200.281 224.598 200.47C217.091 205.012 208.875 207.878 200.251 207.862C199.937 207.862 199.618 207.863 199.29 207.864C198.24 207.867 197.185 207.864 196.131 207.867C195.374 207.869 194.617 207.871 193.856 207.873C191.802 207.878 189.748 207.878 187.699 207.883C185.552 207.883 183.4 207.889 181.253 207.894C177.188 207.904 173.127 207.909 169.062 207.914C163.568 207.918 158.07 207.932 152.576 207.94C143.923 207.957 135.274 207.969 126.621 207.985C126.527 226.8 126.433 245.614 126.335 264.999C120.161 265.014 113.987 265.029 107.626 265.045C107.562 238.767 107.497 212.489 107.431 185.415C117.403 185.362 117.403 185.362 127.578 185.309C131.792 185.285 136.005 185.26 140.219 185.236C146.908 185.191 153.596 185.151 160.285 185.121C165.158 185.1 170.027 185.069 174.899 185.038C177.476 185.018 180.053 185.002 182.63 184.996C185.062 184.985 187.49 184.97 189.922 184.95C190.811 184.943 191.699 184.94 192.584 184.938C201.56 184.921 209.67 183.601 217.229 177.829C218.392 177.134 218.392 177.134 219.337 177.197Z" fill="#55AC8A"/>
<path d="M137.676 85.8281C146.739 85.7635 155.807 85.7082 164.87 85.6625C169.079 85.6427 173.289 85.6183 177.499 85.5891C181.171 85.5612 184.843 85.5381 188.515 85.5244C190.456 85.5196 192.396 85.5102 194.341 85.4912C196.171 85.4726 198.005 85.4634 199.839 85.4636C200.504 85.462 201.174 85.4557 201.839 85.4446C216.161 85.2631 228.806 93.7171 238.804 104.478C241.862 107.943 241.862 107.943 242.23 110.139C242.512 110.138 242.793 110.138 243.083 110.137C243.225 110.76 243.368 111.384 243.514 112.026C243.796 112.025 244.077 112.024 244.367 112.024C252.864 124.669 255.226 141.657 253.237 156.954C252.481 161.51 251.526 167.139 249.203 171.066C248.287 171.446 248.287 171.446 247.498 171.543C247.297 171.194 247.091 170.844 246.886 170.486C241.832 161.938 241.832 161.938 234.962 155.298C232.262 153.349 232.262 153.349 231.801 151.465C231.742 150.029 231.798 148.654 231.897 147.222C231.928 146.202 231.96 145.186 231.987 144.165C232.003 143.679 232.019 143.187 232.039 142.686C232.248 133.677 227.821 125.226 222.359 118.819C216.163 112.239 206.321 107.846 197.757 107.81C197.228 107.807 196.699 107.803 196.157 107.8C195.577 107.801 194.997 107.798 194.421 107.795C193.807 107.796 193.193 107.793 192.579 107.785C190.915 107.78 189.256 107.774 187.593 107.769C185.853 107.759 184.117 107.754 182.377 107.744C179.088 107.728 175.8 107.717 172.507 107.702C168.762 107.687 165.013 107.673 161.268 107.654C153.566 107.62 145.858 107.587 138.156 107.559C137.654 106.459 137.674 105.826 137.675 104.598C137.674 104.182 137.673 103.766 137.672 103.337C137.671 102.888 137.674 102.439 137.673 101.976C137.672 101.518 137.675 101.055 137.674 100.582C137.67 99.1082 137.671 97.6342 137.676 96.165C137.673 95.1634 137.675 94.1666 137.673 93.1697C137.671 90.7225 137.673 88.2753 137.676 85.8281ZM232.494 140.399C232.923 141.343 232.923 141.343 232.923 141.343L232.494 140.399ZM232.521 151.265C232.95 152.208 232.95 152.208 232.95 152.208L232.521 151.265Z" fill="#55AC8A"/>
<path d="M247.196 171.541C248.327 172.929 248.327 172.929 248.327 172.929L247.196 171.541Z" fill="#2A5745"/>
</svg>
